<svg width="280" height="44" viewBox="0 0 280 44" fill="none" xmlns="http://www.w3.org/2000/svg">
<mask id="path-1-inside-1_256_313" fill="white">
<path d="M0 0H280V44H0V0Z"/>
</mask>
<path d="M0 0H280V44H0V0Z" fill="#FE7062" fill-opacity="0.1"/>
<path d="M277 0V44H283V0H277Z" fill="#E36863" mask="url(#path-1-inside-1_256_313)"/>
<path d="M40.5156 22.5391H37.4766V21.3125H40.5156C41.1042 21.3125 41.5807 21.2188 41.9453 21.0312C42.3099 20.8438 42.5755 20.5833 42.7422 20.25C42.9141 19.9167 43 19.5365 43 19.1094C43 18.7188 42.9141 18.3516 42.7422 18.0078C42.5755 17.6641 42.3099 17.388 41.9453 17.1797C41.5807 16.9661 41.1042 16.8594 40.5156 16.8594H37.8281V27H36.3203V15.625H40.5156C41.375 15.625 42.1016 15.7734 42.6953 16.0703C43.2891 16.3672 43.7396 16.7786 44.0469 17.3047C44.3542 17.8255 44.5078 18.4219 44.5078 19.0938C44.5078 19.8229 44.3542 20.4453 44.0469 20.9609C43.7396 21.4766 43.2891 21.8698 42.6953 22.1406C42.1016 22.4062 41.375 22.5391 40.5156 22.5391ZM47.6406 19.875V27H46.1953V18.5469H47.6016L47.6406 19.875ZM50.2812 18.5L50.2734 19.8438C50.1536 19.8177 50.0391 19.8021 49.9297 19.7969C49.8255 19.7865 49.7057 19.7812 49.5703 19.7812C49.237 19.7812 48.9427 19.8333 48.6875 19.9375C48.4323 20.0417 48.2161 20.1875 48.0391 20.375C47.862 20.5625 47.7214 20.7865 47.6172 21.0469C47.5182 21.3021 47.4531 21.5833 47.4219 21.8906L47.0156 22.125C47.0156 21.6146 47.0651 21.1354 47.1641 20.6875C47.2682 20.2396 47.4271 19.8438 47.6406 19.5C47.8542 19.151 48.125 18.8802 48.4531 18.6875C48.7865 18.4896 49.1823 18.3906 49.6406 18.3906C49.7448 18.3906 49.8646 18.4036 50 18.4297C50.1354 18.4505 50.2292 18.474 50.2812 18.5ZM51.0781 22.8672V22.6875C51.0781 22.0781 51.1667 21.513 51.3438 20.9922C51.5208 20.4661 51.776 20.0104 52.1094 19.625C52.4427 19.2344 52.8464 18.9323 53.3203 18.7188C53.7943 18.5 54.3255 18.3906 54.9141 18.3906C55.5078 18.3906 56.0417 18.5 56.5156 18.7188C56.9948 18.9323 57.401 19.2344 57.7344 19.625C58.0729 20.0104 58.3307 20.4661 58.5078 20.9922C58.6849 21.513 58.7734 22.0781 58.7734 22.6875V22.8672C58.7734 23.4766 58.6849 24.0417 58.5078 24.5625C58.3307 25.0833 58.0729 25.5391 57.7344 25.9297C57.401 26.3151 56.9974 26.6172 56.5234 26.8359C56.0547 27.0495 55.5234 27.1562 54.9297 27.1562C54.3359 27.1562 53.8021 27.0495 53.3281 26.8359C52.8542 26.6172 52.4479 26.3151 52.1094 25.9297C51.776 25.5391 51.5208 25.0833 51.3438 24.5625C51.1667 24.0417 51.0781 23.4766 51.0781 22.8672ZM52.5234 22.6875V22.8672C52.5234 23.2891 52.5729 23.6875 52.6719 24.0625C52.7708 24.4323 52.9193 24.7604 53.1172 25.0469C53.3203 25.3333 53.5729 25.5599 53.875 25.7266C54.1771 25.888 54.5286 25.9688 54.9297 25.9688C55.3255 25.9688 55.6719 25.888 55.9688 25.7266C56.2708 25.5599 56.5208 25.3333 56.7188 25.0469C56.9167 24.7604 57.0651 24.4323 57.1641 24.0625C57.2682 23.6875 57.3203 23.2891 57.3203 22.8672V22.6875C57.3203 22.2708 57.2682 21.8776 57.1641 21.5078C57.0651 21.1328 56.9141 20.8021 56.7109 20.5156C56.513 20.224 56.263 19.9948 55.9609 19.8281C55.6641 19.6615 55.3151 19.5781 54.9141 19.5781C54.5182 19.5781 54.1693 19.6615 53.8672 19.8281C53.5703 19.9948 53.3203 20.224 53.1172 20.5156C52.9193 20.8021 52.7708 21.1328 52.6719 21.5078C52.5729 21.8776 52.5234 22.2708 52.5234 22.6875ZM65.9141 25.3594V15H67.3672V27H66.0391L65.9141 25.3594ZM60.2266 22.8672V22.7031C60.2266 22.0573 60.3047 21.4714 60.4609 20.9453C60.6224 20.4141 60.849 19.9583 61.1406 19.5781C61.4375 19.1979 61.7891 18.9062 62.1953 18.7031C62.6068 18.4948 63.0651 18.3906 63.5703 18.3906C64.1016 18.3906 64.5651 18.4844 64.9609 18.6719C65.362 18.8542 65.7005 19.1224 65.9766 19.4766C66.2578 19.8255 66.4792 20.2474 66.6406 20.7422C66.8021 21.237 66.9141 21.7969 66.9766 22.4219V23.1406C66.9193 23.7604 66.8073 24.3177 66.6406 24.8125C66.4792 25.3073 66.2578 25.7292 65.9766 26.0781C65.7005 26.4271 65.362 26.6953 64.9609 26.8828C64.5599 27.0651 64.0911 27.1562 63.5547 27.1562C63.0599 27.1562 62.6068 27.0495 62.1953 26.8359C61.7891 26.6224 61.4375 26.3229 61.1406 25.9375C60.849 25.5521 60.6224 25.099 60.4609 24.5781C60.3047 24.0521 60.2266 23.4818 60.2266 22.8672ZM61.6797 22.7031V22.8672C61.6797 23.2891 61.7214 23.6849 61.8047 24.0547C61.8932 24.4245 62.0286 24.75 62.2109 25.0312C62.3932 25.3125 62.625 25.5339 62.9062 25.6953C63.1875 25.8516 63.5234 25.9297 63.9141 25.9297C64.3932 25.9297 64.7865 25.8281 65.0938 25.625C65.4062 25.4219 65.6562 25.1536 65.8438 24.8203C66.0312 24.487 66.1771 24.125 66.2812 23.7344V21.8516C66.2188 21.5651 66.1276 21.2891 66.0078 21.0234C65.8932 20.7526 65.7422 20.513 65.5547 20.3047C65.3724 20.0911 65.1458 19.9219 64.875 19.7969C64.6094 19.6719 64.2943 19.6094 63.9297 19.6094C63.5339 19.6094 63.1927 19.6927 62.9062 19.8594C62.625 20.0208 62.3932 20.2448 62.2109 20.5312C62.0286 20.8125 61.8932 21.1406 61.8047 21.5156C61.7214 21.8854 61.6797 22.2812 61.6797 22.7031ZM74.7891 25.0469V18.5469H76.2422V27H74.8594L74.7891 25.0469ZM75.0625 23.2656L75.6641 23.25C75.6641 23.8125 75.6042 24.3333 75.4844 24.8125C75.3698 25.2865 75.1823 25.6979 74.9219 26.0469C74.6615 26.3958 74.3203 26.6693 73.8984 26.8672C73.4766 27.0599 72.9635 27.1562 72.3594 27.1562C71.9479 27.1562 71.5703 27.0964 71.2266 26.9766C70.888 26.8568 70.5964 26.6719 70.3516 26.4219C70.1068 26.1719 69.9167 25.8464 69.7812 25.4453C69.651 25.0443 69.5859 24.5625 69.5859 24V18.5469H71.0312V24.0156C71.0312 24.3958 71.0729 24.7109 71.1562 24.9609C71.2448 25.2057 71.362 25.401 71.5078 25.5469C71.6589 25.6875 71.8255 25.7865 72.0078 25.8438C72.1953 25.901 72.388 25.9297 72.5859 25.9297C73.2005 25.9297 73.6875 25.8125 74.0469 25.5781C74.4062 25.3385 74.6641 25.0182 74.8203 24.6172C74.9818 24.2109 75.0625 23.7604 75.0625 23.2656ZM81.8281 25.9688C82.1719 25.9688 82.4896 25.8984 82.7812 25.7578C83.0729 25.6172 83.3125 25.4245 83.5 25.1797C83.6875 24.9297 83.7943 24.6458 83.8203 24.3281H85.1953C85.1693 24.8281 85 25.2943 84.6875 25.7266C84.3802 26.1536 83.9766 26.5 83.4766 26.7656C82.9766 27.026 82.4271 27.1562 81.8281 27.1562C81.1927 27.1562 80.638 27.0443 80.1641 26.8203C79.6953 26.5964 79.3047 26.2891 78.9922 25.8984C78.6849 25.5078 78.4531 25.0599 78.2969 24.5547C78.1458 24.0443 78.0703 23.5052 78.0703 22.9375V22.6094C78.0703 22.0417 78.1458 21.5052 78.2969 21C78.4531 20.4896 78.6849 20.0391 78.9922 19.6484C79.3047 19.2578 79.6953 18.9505 80.1641 18.7266C80.638 18.5026 81.1927 18.3906 81.8281 18.3906C82.4896 18.3906 83.0677 18.526 83.5625 18.7969C84.0573 19.0625 84.4453 19.4271 84.7266 19.8906C85.013 20.349 85.1693 20.8698 85.1953 21.4531H83.8203C83.7943 21.1042 83.6953 20.7891 83.5234 20.5078C83.3568 20.2266 83.1276 20.0026 82.8359 19.8359C82.5495 19.6641 82.2135 19.5781 81.8281 19.5781C81.3854 19.5781 81.013 19.6667 80.7109 19.8438C80.4141 20.0156 80.1771 20.25 80 20.5469C79.8281 20.8385 79.7031 21.1641 79.625 21.5234C79.5521 21.8776 79.5156 22.2396 79.5156 22.6094V22.9375C79.5156 23.3073 79.5521 23.6719 79.625 24.0312C79.6979 24.3906 79.8203 24.7161 79.9922 25.0078C80.1693 25.2995 80.4062 25.5339 80.7031 25.7109C81.0052 25.8828 81.3802 25.9688 81.8281 25.9688ZM90.3594 18.5469V19.6562H85.7891V18.5469H90.3594ZM87.3359 16.4922H88.7812V24.9062C88.7812 25.1927 88.8255 25.4089 88.9141 25.5547C89.0026 25.7005 89.1172 25.7969 89.2578 25.8438C89.3984 25.8906 89.5495 25.9141 89.7109 25.9141C89.8307 25.9141 89.9557 25.9036 90.0859 25.8828C90.2214 25.8568 90.3229 25.8359 90.3906 25.8203L90.3984 27C90.2839 27.0365 90.1328 27.0703 89.9453 27.1016C89.763 27.138 89.5417 27.1562 89.2812 27.1562C88.9271 27.1562 88.6016 27.0859 88.3047 26.9453C88.0078 26.8047 87.7708 26.5703 87.5938 26.2422C87.4219 25.9089 87.3359 25.4609 87.3359 24.8984V16.4922ZM96.9766 24.7578C96.9766 24.5495 96.9297 24.3568 96.8359 24.1797C96.7474 23.9974 96.5625 23.8333 96.2812 23.6875C96.0052 23.5365 95.5885 23.4062 95.0312 23.2969C94.5625 23.1979 94.138 23.0807 93.7578 22.9453C93.3828 22.8099 93.0625 22.6458 92.7969 22.4531C92.5365 22.2604 92.3359 22.0339 92.1953 21.7734C92.0547 21.513 91.9844 21.2083 91.9844 20.8594C91.9844 20.526 92.0573 20.2109 92.2031 19.9141C92.3542 19.6172 92.5651 19.3542 92.8359 19.125C93.112 18.8958 93.4427 18.7161 93.8281 18.5859C94.2135 18.4557 94.6432 18.3906 95.1172 18.3906C95.7943 18.3906 96.3724 18.5104 96.8516 18.75C97.3307 18.9896 97.6979 19.3099 97.9531 19.7109C98.2083 20.1068 98.3359 20.5469 98.3359 21.0312H96.8906C96.8906 20.7969 96.8203 20.5703 96.6797 20.3516C96.5443 20.1276 96.3438 19.9427 96.0781 19.7969C95.8177 19.651 95.4974 19.5781 95.1172 19.5781C94.7161 19.5781 94.3906 19.6406 94.1406 19.7656C93.8958 19.8854 93.7161 20.0391 93.6016 20.2266C93.4922 20.4141 93.4375 20.612 93.4375 20.8203C93.4375 20.9766 93.4635 21.1172 93.5156 21.2422C93.5729 21.362 93.6719 21.474 93.8125 21.5781C93.9531 21.6771 94.151 21.7708 94.4062 21.8594C94.6615 21.9479 94.987 22.0365 95.3828 22.125C96.0755 22.2812 96.6458 22.4688 97.0938 22.6875C97.5417 22.9062 97.875 23.1745 98.0938 23.4922C98.3125 23.8099 98.4219 24.1953 98.4219 24.6484C98.4219 25.0182 98.3438 25.3568 98.1875 25.6641C98.0365 25.9714 97.8151 26.237 97.5234 26.4609C97.237 26.6797 96.8932 26.8516 96.4922 26.9766C96.0964 27.0964 95.651 27.1562 95.1562 27.1562C94.4115 27.1562 93.7812 27.0234 93.2656 26.7578C92.75 26.4922 92.3594 26.1484 92.0938 25.7266C91.8281 25.3047 91.6953 24.8594 91.6953 24.3906H93.1484C93.1693 24.7865 93.2839 25.1016 93.4922 25.3359C93.7005 25.5651 93.9557 25.7292 94.2578 25.8281C94.5599 25.9219 94.8594 25.9688 95.1562 25.9688C95.5521 25.9688 95.8828 25.9167 96.1484 25.8125C96.4193 25.7083 96.625 25.5651 96.7656 25.3828C96.9062 25.2005 96.9766 24.9922 96.9766 24.7578Z" fill="#637381"/>
<path d="M248 26.25C247.812 26.25 247.656 26.1875 247.5 26.0625L240.312 19C240.031 18.7188 240.031 18.2813 240.312 18C240.594 17.7188 241.031 17.7188 241.313 18L248 24.5312L254.688 17.9375C254.969 17.6562 255.406 17.6562 255.688 17.9375C255.969 18.2188 255.969 18.6563 255.688 18.9375L248.5 26C248.344 26.1563 248.187 26.25 248 26.25Z" fill="#637381"/>
</svg>
